<svg width="118" height="67" viewBox="0 0 118 67" fill="none" xmlns="http://www.w3.org/2000/svg">
<path d="M67 56C67 51.5817 63.4183 48 59 48C54.5817 48 51 51.5817 51 56L67 56ZM53.3431 64.6569C56.4673 67.781 61.5327 67.781 64.6569 64.6569L115.569 13.7452C118.693 10.621 118.693 5.55566 115.569 2.43146C112.444 -0.692732 107.379 -0.692733 104.255 2.43146L59 47.6863L13.7452 2.43145C10.621 -0.692741 5.55566 -0.692742 2.43146 2.43145C-0.692732 5.55565 -0.692733 10.621 2.43146 13.7452L53.3431 64.6569ZM51 56L51 59L67 59L67 56L51 56Z" fill="black"/>
</svg>
