<svg width="203" height="176" viewBox="0 0 203 176" fill="none" xmlns="http://www.w3.org/2000/svg">
<path d="M8 8L7.99999 168" stroke="black" stroke-width="16" stroke-linecap="round"/>
<path d="M195 96C199.418 96 203 92.4183 203 88C203 83.5817 199.418 80 195 80V96ZM29.3431 82.3431C26.219 85.4673 26.219 90.5327 29.3431 93.6569L80.2548 144.569C83.379 147.693 88.4443 147.693 91.5685 144.569C94.6927 141.444 94.6927 136.379 91.5685 133.255L46.3137 88L91.5685 42.7452C94.6927 39.621 94.6927 34.5557 91.5685 31.4315C88.4443 28.3073 83.379 28.3073 80.2548 31.4315L29.3431 82.3431ZM195 80H35V96H195V80Z" fill="black"/>
</svg>
