<svg width="203" height="176" viewBox="0 0 203 176" fill="none" xmlns="http://www.w3.org/2000/svg">
<path d="M8 8L7.99999 168" stroke="black" stroke-width="16" stroke-linecap="round"/>
<path d="M35 80C30.5817 80 27 83.5817 27 88C27 92.4183 30.5817 96 35 96V80ZM200.657 93.6569C203.781 90.5327 203.781 85.4673 200.657 82.3431L149.745 31.4315C146.621 28.3073 141.556 28.3073 138.431 31.4315C135.307 34.5557 135.307 39.621 138.431 42.7452L183.686 88L138.431 133.255C135.307 136.379 135.307 141.444 138.431 144.569C141.556 147.693 146.621 147.693 149.745 144.569L200.657 93.6569ZM35 96H195V80H35V96Z" fill="black"/>
</svg>
